<mxfile host="app.diagrams.net" modified="2021-01-13T06:29:05.238Z" agent="5.0 (Windows NT 10.0; Win64; x64) AppleWebKit/537.36 (KHTML, like Gecko) Chrome/86.0.4240.111 Safari/537.36" etag="q5mUFQO6iXJLN6Li22Ej" version="14.1.9" type="github">
  <diagram id="n11sDdEFJ_vp6peXoD-N" name="Page-1">
    <mxGraphModel dx="2249" dy="762" grid="1" gridSize="10" guides="1" tooltips="1" connect="1" arrows="1" fold="1" page="1" pageScale="1" pageWidth="827" pageHeight="1169" math="0" shadow="0">
      <root>
        <mxCell id="0" />
        <mxCell id="1" parent="0" />
        <mxCell id="QScUzok_AzWjEGf1qRYZ-2" value="卡口管理角色" style="rounded=1;whiteSpace=wrap;html=1;" parent="1" vertex="1">
          <mxGeometry x="60" y="50" width="120" height="60" as="geometry" />
        </mxCell>
        <mxCell id="1zeA-r3kMQLmuasdmlzO-5" value="" style="edgeStyle=orthogonalEdgeStyle;rounded=0;orthogonalLoop=1;jettySize=auto;html=1;" parent="1" source="1zeA-r3kMQLmuasdmlzO-1" target="1zeA-r3kMQLmuasdmlzO-2" edge="1">
          <mxGeometry relative="1" as="geometry" />
        </mxCell>
        <mxCell id="1zeA-r3kMQLmuasdmlzO-1" value="登录App" style="rounded=1;whiteSpace=wrap;html=1;" parent="1" vertex="1">
          <mxGeometry x="130" y="160" width="120" height="60" as="geometry" />
        </mxCell>
        <mxCell id="1zeA-r3kMQLmuasdmlzO-4" value="" style="edgeStyle=orthogonalEdgeStyle;rounded=0;orthogonalLoop=1;jettySize=auto;html=1;" parent="1" source="1zeA-r3kMQLmuasdmlzO-2" target="1zeA-r3kMQLmuasdmlzO-3" edge="1">
          <mxGeometry relative="1" as="geometry" />
        </mxCell>
        <mxCell id="1zeA-r3kMQLmuasdmlzO-7" value="" style="edgeStyle=orthogonalEdgeStyle;rounded=0;orthogonalLoop=1;jettySize=auto;html=1;" parent="1" source="1zeA-r3kMQLmuasdmlzO-2" target="1zeA-r3kMQLmuasdmlzO-6" edge="1">
          <mxGeometry relative="1" as="geometry" />
        </mxCell>
        <mxCell id="1zeA-r3kMQLmuasdmlzO-10" value="" style="edgeStyle=orthogonalEdgeStyle;rounded=0;orthogonalLoop=1;jettySize=auto;html=1;" parent="1" source="1zeA-r3kMQLmuasdmlzO-2" target="1zeA-r3kMQLmuasdmlzO-9" edge="1">
          <mxGeometry relative="1" as="geometry" />
        </mxCell>
        <mxCell id="1zeA-r3kMQLmuasdmlzO-14" style="edgeStyle=orthogonalEdgeStyle;rounded=0;orthogonalLoop=1;jettySize=auto;html=1;entryX=0.5;entryY=0;entryDx=0;entryDy=0;" parent="1" edge="1">
          <mxGeometry relative="1" as="geometry">
            <mxPoint x="190" y="358" as="sourcePoint" />
            <mxPoint x="430" y="553" as="targetPoint" />
            <Array as="points">
              <mxPoint x="190" y="458" />
              <mxPoint x="430" y="458" />
            </Array>
          </mxGeometry>
        </mxCell>
        <mxCell id="1zeA-r3kMQLmuasdmlzO-2" value="卡口" style="rounded=1;whiteSpace=wrap;html=1;" parent="1" vertex="1">
          <mxGeometry x="130" y="300" width="120" height="60" as="geometry" />
        </mxCell>
        <mxCell id="1zeA-r3kMQLmuasdmlzO-3" value="卡口类型：固定、流动&lt;br&gt;&amp;nbsp; 有效时间：起始时间&lt;br&gt;带班人员：xxx&lt;br&gt;位置：经纬度&lt;br&gt;地址：xxx&lt;br&gt;车辆：xxxx" style="shape=note;whiteSpace=wrap;html=1;backgroundOutline=1;darkOpacity=0.05;rounded=1;" parent="1" vertex="1">
          <mxGeometry x="-160" y="275" width="210" height="110" as="geometry" />
        </mxCell>
        <mxCell id="1zeA-r3kMQLmuasdmlzO-6" value="取消卡口" style="rounded=1;whiteSpace=wrap;html=1;" parent="1" vertex="1">
          <mxGeometry x="40" y="555" width="120" height="60" as="geometry" />
        </mxCell>
        <mxCell id="1zeA-r3kMQLmuasdmlzO-9" value="人员调整&lt;br&gt;" style="rounded=1;whiteSpace=wrap;html=1;" parent="1" vertex="1">
          <mxGeometry x="210" y="555" width="120" height="60" as="geometry" />
        </mxCell>
        <mxCell id="1zeA-r3kMQLmuasdmlzO-11" value="带班人员调整" style="rounded=1;whiteSpace=wrap;html=1;" parent="1" vertex="1">
          <mxGeometry x="370" y="555" width="120" height="60" as="geometry" />
        </mxCell>
      </root>
    </mxGraphModel>
  </diagram>
</mxfile>
